<?xml version="1.0" encoding="utf-8"?>
<svg viewBox="0 0 200 200" xmlns="http://www.w3.org/2000/svg" xmlns:bx="https://boxy-svg.com" width="200px" height="200px"><defs><linearGradient id="mainGradient" x1="0%" y1="0%" x2="100%" y2="100%"><stop offset="0" style="stop-color:#326CE5;stop-opacity:1"/><stop offset="1" style="stop-color:#5B8DEE;stop-opacity:1"/></linearGradient><linearGradient id="accentGradient" x1="0%" y1="0%" x2="100%" y2="100%"><stop offset="0" style="stop-color:#00D9FF;stop-opacity:1"/><stop offset="1" style="stop-color:#00B8E6;stop-opacity:1"/></linearGradient><bx:export><bx:file format="png"/><bx:file format="svg"/></bx:export></defs><g transform="matrix(1, 0, 0, 1, 0, 10)"><path d="M 100 20 L 160 55 L 160 125 L 100 160 L 40 125 L 40 55 Z" fill="url(#mainGradient)" stroke="#326CE5" stroke-width="3" opacity="0.9"/><g opacity="0.3"><line x1="100" y1="20" x2="100" y2="160" stroke="#fff" stroke-width="2"/><line x1="40" y1="55" x2="160" y2="125" stroke="#fff" stroke-width="2"/><line x1="40" y1="125" x2="160" y2="55" stroke="#fff" stroke-width="2"/></g><ellipse cx="100" cy="90" rx="28" ry="35" fill="url(#accentGradient)"/><circle cx="90" cy="80" r="10" fill="#fff"/><circle cx="110" cy="80" r="10" fill="#fff"/><circle cx="90" cy="80" r="5" fill="#326CE5"/><circle cx="110" cy="80" r="5" fill="#326CE5"/><path d="M 100 88 L 95 95 L 105 95 Z" fill="#FF9800"/><circle cx="75" cy="95" r="8" fill="#fff" opacity="0.8"/><circle cx="125" cy="95" r="8" fill="#fff" opacity="0.8"/><path d="M 85 65 L 82 55 L 88 60 Z" fill="url(#accentGradient)"/><path d="M 115 65 L 118 55 L 112 60 Z" fill="url(#accentGradient)"/><circle cx="75" cy="95" r="3" fill="#326CE5"/><circle cx="125" cy="95" r="3" fill="#326CE5"/><g opacity="0.2"><circle cx="100" cy="90" r="45" fill="none" stroke="#fff" stroke-width="2"/><circle cx="100" cy="45" r="4" fill="#fff"/><circle cx="140" cy="68" r="4" fill="#fff"/><circle cx="140" cy="112" r="4" fill="#fff"/><circle cx="100" cy="135" r="4" fill="#fff"/><circle cx="60" cy="112" r="4" fill="#fff"/><circle cx="60" cy="68" r="4" fill="#fff"/></g><circle cx="100" cy="130" r="4" fill="#00D9FF" opacity="0.7"/><line x1="100" y1="115" x2="100" y2="126" stroke="#00D9FF" stroke-width="2" opacity="0.5"/></g></svg>